0, 0, Header, 0, 1, 96
1, 0, Start_track
1, 0, Title_t, "1-Stage-73 V 10\000"
1, 0, Time_signature, 4, 2, 36, 8
1, 0, Time_signature, 4, 2, 36, 8
1, 0, Note_on_c, 0, 62, 127
1, 0, Note_on_c, 0, 65, 127
1, 0, Note_on_c, 0, 69, 127
1, 0, Note_on_c, 0, 72, 127
1, 192, Note_off_c, 0, 62, 64
1, 192, Note_on_c, 0, 62, 127
1, 192, Note_off_c, 0, 65, 64
1, 192, Note_on_c, 0, 65, 127
1, 192, Note_on_c, 0, 67, 127
1, 192, Note_off_c, 0, 69, 64
1, 192, Note_on_c, 0, 71, 127
1, 192, Note_off_c, 0, 72, 64
1, 384, Note_on_c, 0, 60, 127
1, 384, Note_off_c, 0, 62, 64
1, 384, Note_on_c, 0, 64, 127
1, 384, Note_off_c, 0, 65, 64
1, 384, Note_off_c, 0, 67, 64
1, 384, Note_on_c, 0, 67, 127
1, 384, Note_off_c, 0, 71, 64
1, 384, Note_on_c, 0, 71, 127
1, 576, Note_off_c, 0, 60, 64
1, 576, Note_on_c, 0, 60, 127
1, 576, Note_off_c, 0, 64, 64
1, 576, Note_on_c, 0, 64, 127
1, 576, Note_on_c, 0, 65, 127
1, 576, Note_off_c, 0, 67, 64
1, 576, Note_on_c, 0, 69, 127
1, 576, Note_off_c, 0, 71, 64
1, 768, Note_off_c, 0, 60, 64
1, 768, Note_off_c, 0, 64, 64
1, 768, Note_off_c, 0, 65, 64
1, 768, Note_off_c, 0, 69, 64
1, 768, End_track
0, 0, End_of_file
